<svg id="Layer_1" data-name="Layer 1" xmlns="http://www.w3.org/2000/svg" viewBox="0 0 117.17 122.88"><defs><style>.cls-1{fill-rule:evenodd;}</style></defs><title>translation</title><path class="cls-1" d="M23.46,98.8l24-7.22-4.24,7.8c8.69,7.36,17.64,9.33,27.58,5.08-9.36,14.77-23.85,16.47-36,10.47l-4.33,7.95-7-24.08ZM23,35.33h9.93V32.77a.33.33,0,0,1,.33-.33H37.8a.33.33,0,0,1,.33.33v2.56h10a.33.33,0,0,1,.33.33v4.75a.32.32,0,0,1-.33.32H46.27a21.5,21.5,0,0,1-.91,4,25,25,0,0,1-1.73,4A32,32,0,0,1,41.55,52c-.72,1-1.51,2-2.35,3a40.33,40.33,0,0,0,4.63,4.61l0,0a55.4,55.4,0,0,0,5.82,4.28.32.32,0,0,1,.1.45l-2.35,3.68a.35.35,0,0,1-.46.1,60.53,60.53,0,0,1-6.24-4.58,44.58,44.58,0,0,1-5-4.9c-1.29,1.23-2.65,2.43-4.07,3.58-1.61,1.29-3.29,2.54-5,3.73a.33.33,0,0,1-.46-.08l-2.47-3.59a.31.31,0,0,1,.08-.45c1.69-1.17,3.34-2.4,4.91-3.68,1.39-1.13,2.72-2.3,3.95-3.51a39.71,39.71,0,0,1-3.15-5.61,44.72,44.72,0,0,1-2.43-6.63.34.34,0,0,1,.23-.4l4.21-1.18a.32.32,0,0,1,.4.23,39.2,39.2,0,0,0,1.92,5.38,37.33,37.33,0,0,0,2.32,4.39c.55-.69,1.07-1.37,1.55-2.06s1.06-1.64,1.51-2.48a19.68,19.68,0,0,0,1.29-2.91,18.87,18.87,0,0,0,.69-2.69H23a.32.32,0,0,1-.33-.32V35.66a.33.33,0,0,1,.33-.33Zm49.5,4.26h32.38a12.38,12.38,0,0,1,12.33,12.34V78a12.38,12.38,0,0,1-12.33,12.34h-1l-.66,9.89a2.62,2.62,0,0,1-4.19,2L83.25,90.35H63.18A12.38,12.38,0,0,1,50.86,78.53H38.67L20.35,93A4.57,4.57,0,0,1,13,89l.8-10.55a14.92,14.92,0,0,1-9.38-4.35l-.28-.3A14.94,14.94,0,0,1,0,63.56V35.71a15,15,0,0,1,15-15H57.49a14.91,14.91,0,0,1,10.57,4.39l.28.29a15,15,0,0,1,4.12,10.28v3.88Zm31.69-14.72L79.31,28.23l5.41-7c-7.42-8.63-16-12-26.43-9.35C69.85-1.26,84.43-.67,95.52,7.17L101,0l3.11,24.87ZM91.58,70.09h-8l-1.48,5H74.89c2.4-6.37,5.18-14,7.59-20.4.87-2.3,1.86-6.12,5-6.12s4.36,3.5,5.27,5.92l7.71,20.71H93.1l-1.52-5.14Zm-1.21-4.9-2.79-8.78-2.8,8.78ZM15,25.32H57.49A10.43,10.43,0,0,1,67.88,35.71V63.56A10.42,10.42,0,0,1,57.49,74H37.09L17.53,89.37,18.69,74H15A10.41,10.41,0,0,1,4.58,63.56V35.71A10.42,10.42,0,0,1,15,25.32Z"/></svg>