<?xml version="1.0" encoding="utf-8"?>
<!-- Generator: Adobe Illustrator 19.2.1, SVG Export Plug-In . SVG Version: 6.00 Build 0)  -->
<svg version="1.1" id="layer" xmlns="http://www.w3.org/2000/svg" xmlns:xlink="http://www.w3.org/1999/xlink" x="0px" y="0px"
	 viewBox="0 0 652 652" style="enable-background:new 0 0 652 652;" xml:space="preserve">
<path class="st0" style="fill:#E62027;" d="M470.3,398.8c-5.5,9.3-19.1,35.3-54.9,56.6c-46.5,27.9-116.8,31.3-166.6-9.3c-22.7-18.5-36.5-38.3-41.1-46.9
	H103.8c20.8,51.6,77.4,110.9,152,124.5c65.9,11.9,136.5-2,192.7-57.4c19.1-20.9,34-39.1,44.8-67.4H470.3z"/>
<path class="st0" style="fill:#E62027;" d="M207.2,255.2c5.5-9.4,19.1-35.3,54.9-56.6c46.6-27.9,116.9-31.3,166.7,9.3c22.7,18.5,36.4,38.1,41.1,47h103.9
	c-20.8-51.6-77.3-111-152-124.6c-65.9-11.8-136.5,2.2-192.7,57.5c-19.1,21.1-33.9,39.1-44.7,67.4H207.2z"/>
<path class="st1" style="fill:#221E1F;" d="M69.8,293.5h11.7c4,0,7,0.9,8.5,3c1.5,1.9,1.9,4.9,0.8,8.5c-1.2,4.3-3.2,7.7-5.9,9.8c-2.6,2-6.2,3.1-10.2,3.1
	H62.9L69.8,293.5z M58.6,332.8H69c5.2,0,8.6,1.2,10.4,3.6c1.9,2.1,2.1,5.6,0.8,10.2c-1.4,4.7-3.5,8.1-6.7,10.5
	c-3.2,2.2-7.4,3.4-12.8,3.4h-9.9L58.6,332.8z M62.2,375.4c10.7,0,18.9-2.3,24.8-6.5c6.3-4.3,10.6-11.2,13.4-20.7
	c1.9-6.4,1.7-11.4-0.4-15.7c-1.9-3.9-5.8-6.5-11.2-7.5c5.3-0.4,9.9-2.7,14.2-6.8c4-4,7.2-9.5,9-16c2.5-7.9,1.7-13.8-2.1-17.7
	c-3.6-3.9-10.6-5.9-20.4-5.9H54l-27.8,96.9H62.2z"/>
<path class="st1" style="fill:#221E1F;" d="M150,299c3.1-4.4,7.2-6.7,12.3-6.7c4.6,0,7.3,2.1,8,6.5c0.6,4.4-1.1,13.4-4.9,26.8
	c-4.3,15.4-8.1,25.2-11.3,29.5c-3.2,4.4-7.2,6.6-12.1,6.6c-4.9,0-7.6-2.2-8-6.7c-0.7-4.8,1.3-14,5.3-28.3
	C143.4,312.7,146.8,303.5,150,299 M154.9,374c5.3-2,9.6-4.8,13.1-8.4c3.6-3.8,6.8-8.3,9.4-14.2c2.8-5.6,6-14.6,9.3-26.6
	c3.4-11.7,5-20.5,5-26.6c0-5.9-1.5-10.7-4.4-14c-1.9-2.1-4.7-3.8-8.5-5c-3.5-1.2-7.8-1.8-12.5-1.8c-6.3,0-11.8,0.9-17.2,2.8
	c-5.1,2.1-9.5,4.7-12.9,8.4c-3.6,3.5-6.6,8.1-9.3,13.7c-2.6,5.8-5.6,13.6-8.4,23.5c-3.7,13.1-5.6,22.8-5.6,29.5
	c0,6.5,1.5,11.6,4.5,15.1c1.7,1.9,4.6,3.6,8.2,4.8c3.6,1.2,7.8,1.8,12.5,1.8C144.1,376.9,149.6,376,154.9,374"/>
<path class="st1" style="fill:#221E1F;" d="M266.2,324.4l-14,49.3c-7,1.1-13,2-17.9,2.5c-4.8,0.6-9.1,0.8-12.8,0.8c-6.2,0-11.3-0.5-15.1-1.6
	c-4-1.1-6.8-2.8-9-5c-3.2-3.5-4.7-8.6-4.4-14.8c0-6.5,1.9-16.7,6.1-30.8c2.7-9.9,5.4-17.3,8.1-22.8c2.6-5.5,5.8-9.8,9.2-13.4
	c3.6-3.8,8.1-6.5,13.4-8.4c5.1-1.9,11-2.8,18-2.8c10.3,0,17.6,2.4,21.6,7.5c4.1,5.1,4.7,12.4,1.9,22.1l-0.4,1.5h-20.5l0.4-1.1
	c1.5-5.5,1.7-9.6,0.4-12.2c-1.3-2.7-3.8-3.9-8.1-3.9c-5.1,0-9.1,2.1-12.5,6.5c-2.9,4.5-6.7,14.1-11,29c-4.5,15.8-6.2,25.9-4.9,29.9
	c1,4.2,4.9,6.2,11.2,6.2c1.3,0,3-0.1,4.6-0.3c1.8-0.3,3.8-0.7,6.1-1.1l6.4-21.8h-11.4l4.2-15.3H266.2z"/>
<polygon class="st1" style="fill:#221E1F;" points="266,375.4 293.5,278.5 347.8,278.5 343.6,293.5 310.5,293.5 303.7,316.6 334.2,316.6 330,331.5 
	299.6,331.5 291.4,359.7 326,359.7 321.3,375.4 "/>
<path class="st1" style="fill:#221E1F;" d="M338.9,345.5h21.4l-0.9,2.5c-1.5,5-1.7,8.5-0.4,10.8c1.3,2,3.9,3.2,7.9,3.2c3.1,0,5.9-1,8.4-2.9
	c2.4-1.9,4-4.7,5.1-7.9c1.2-4.5-1.7-9.7-9-15.2c-0.6-0.4-1-0.8-1.2-0.8c-3.8-3.1-6.8-5.3-9.1-7.3c-2.1-1.9-3.8-3.6-4.9-4.6
	c-2.8-3.1-4.4-6.3-4.9-9.2c-0.7-3-0.2-6.4,1.1-10.7c2.3-8,6.9-14.5,14-19.3c7.2-4.9,15.7-7.3,25.2-7.3c10.2,0,17,2.3,20.8,6.8
	c3.6,4.3,4.5,11,1.9,19.8l-0.8,2.7H393v-0.7c1.5-4.6,1.5-7.9,0.4-10.2c-0.8-2.3-3.2-3.5-6.5-3.5c-3.2,0-6,0.9-8.3,2.6
	c-2.4,2-4,4.3-4.9,7.4c-1.5,5.1,2.5,11.1,12.3,17.7c2.5,1.8,4.4,3.3,5.7,4.2c5.6,3.9,8.9,8,10.5,11.5c1.5,3.8,1.5,8.2,0,13.4
	c-2.6,9.5-7.4,16.6-14.7,21.3c-7,4.8-16.1,7.2-27.1,7.2c-10.6,0-17.6-2.3-21.2-6.8c-3.6-4.7-4.1-11.7-1.3-21.5
	c0.2-0.3,0.2-0.8,0.4-1.7C338.7,346.4,338.9,345.8,338.9,345.5"/>
<polygon class="st1" style="fill:#221E1F;" points="423.3,375.4 446.4,294.4 423.4,294.4 428.1,278.5 495.4,278.5 490.9,294.4 467.8,294.4 444.7,375.4 "/>
<path class="st1" style="fill:#221E1F;" d="M519.5,293.6h5.7c5.7,0,9.3,1.1,10.8,2.9c1.4,1.7,1.4,5.1,0,10.1c-1.5,5-3.6,8.8-6.4,10.7
	c-2.7,2-6.9,3.1-12.5,3.1h-5.3L519.5,293.6z M502.9,278.5l-27.5,96.9h21l11.2-39.9h8.7c3.9,0,6.7,1,7.9,3.1c1,2,1,5.3-0.3,10.1
	c-0.4,1.8-1.1,4.4-1.9,7.8c-2.7,9.6-4,15.9-4,19h21.9c0-2.4,0-5.4,0.4-8.6c0.4-3.1,1.5-7,2.8-11.4c0-0.6,0.4-1.4,0.6-2.4
	c0.5-1.2,0.6-1.9,0.9-2.4c2.4-8.4,3-13.9,1.4-17c-1.2-2.8-4.6-4.8-10.3-6.1c5.7-1.1,10-3.5,13.3-7.3c3.3-3.8,5.9-9.3,8.2-16.8
	c2.6-9.4,2.3-16-1.3-19.5c-3.4-3.7-11-5.5-23.3-5.5H502.9z"/>
<path class="st1" style="fill:#221E1F;" d="M607.3,297.1l-1.7,41.8h-21.4L607.3,297.1z M626.2,375.3v-96.8h-26.7l-55.7,96.9h21l11.4-21.5h29l-0.6,21.5
	L626.2,375.3z"/>
</svg>
